# xmcd
#
# Track frame offsets:
#	150
#	13499
#	25489
#	34229
#	43553
#	53771
#	67625
#	77431
#	86627
#	96456
#	108636
#	118342
#	131890
#	137627
#	152699
#	162115
#	168619
#	181025
#	191687
#	201939
#	216674
#	226977
#	237492
#	246883
#	258554
#	274545
#	288056
#	297964
#	316535
#
# Disc length: 4328 seconds
#
# Revision: 1
# Processed by: cddbd v1.5.2PL0 Copyright (c) Steve Scherf et al.
# Submitted via: audiograbber 1.83.01
#
DISCID=a810e61d
DTITLE=Danielle Laval - Mendelssohn - Romances Sans Paroles
DYEAR=2007
DGENRE=Classical
TTITLE0=Le promeneur
TTITLE1=Chant du peterin
TTITLE2=Barcarolle venitienne no. 1
TTITLE3=Agitation no. 2
TTITLE4=Bonheur perdu
TTITLE5=Chanson populaire
TTITLE6=Plainte du berger
TTITLE7=Confiance no. 2
TTITLE8=Illusions perdues
TTITLE9=Elegie
TTITLE10=La fileuse
TTITLE11=Barcarolle venitienne no. 2
TTITLE12=Le joyeux paysan
TTITLE13=Sans foyer
TTITLE14=Retention
TTITLE15=Tarentelle
TTITLE16=Barcarolle venitienne no. 3
TTITLE17=Reverie
TTITLE18=Le soupir du vent
TTITLE19=Untitled
TTITLE20=Regrets
TTITLE21=Les brises de mai
TTITLE22=Le ruisseau
TTITLE23=Meditation
TTITLE24=Au bord de la mer
TTITLE25=Les nuages floconneux
TTITLE26=Chanson du printemps
TTITLE27=Feuille d'album, op. 117
TTITLE28=Chanson du matin
EXTD=
EXTT0=
EXTT1=
EXTT2=
EXTT3=
EXTT4=
EXTT5=
EXTT6=
EXTT7=
EXTT8=
EXTT9=
EXTT10=
EXTT11=
EXTT12=
EXTT13=
EXTT14=
EXTT15=
EXTT16=
EXTT17=
EXTT18=
EXTT19=
EXTT20=
EXTT21=
EXTT22=
EXTT23=
EXTT24=
EXTT25=
EXTT26=
EXTT27=
EXTT28=
PLAYORDER=
